<svg width="72" height="72" viewBox="0 0 72 72" fill="none" xmlns="http://www.w3.org/2000/svg">
<path d="M20.5352 58.5352C18.582 60.4883 15.416 60.4883 13.4629 58.5352C11.5117 56.583 11.5117 53.417 13.4629 51.4648L51.4648 13.4648C53.418 11.5117 56.584 11.5117 58.5371 13.4648C60.4883 15.417 60.4883 18.583 58.5371 20.5352L20.5352 58.5352Z" fill="#EA5A47"/>
<path d="M27 45.001C27 46.6572 25.6563 48.002 23.999 48.002C22.3418 48.002 21 49.3457 20.999 51.002" stroke="black" stroke-width="2" stroke-miterlimit="10" stroke-linecap="round" stroke-linejoin="round"/>
<path d="M39.002 33C39.002 34.6563 37.6582 36 36 36C34.3438 36 33.001 37.3438 33 39" stroke="black" stroke-width="2" stroke-miterlimit="10" stroke-linecap="round" stroke-linejoin="round"/>
<path d="M33 39C33 40.6563 31.6582 42.001 30 42C28.3428 42 27 43.3447 27 45.001" stroke="black" stroke-width="2" stroke-miterlimit="10" stroke-linecap="round" stroke-linejoin="round"/>
<path d="M45.002 26.998C45.002 28.6553 43.6602 30 42.002 29.999C40.3438 29.999 39.002 31.3438 39.002 33" stroke="black" stroke-width="2" stroke-miterlimit="10" stroke-linecap="round" stroke-linejoin="round"/>
<path d="M51.002 20.998C51.002 22.6543 49.6602 23.998 48.002 23.998C46.3457 23.998 45.002 25.3428 45.002 26.998" stroke="black" stroke-width="2" stroke-miterlimit="10" stroke-linecap="round" stroke-linejoin="round"/>
<path d="M20.5352 58.5352C18.582 60.4883 15.416 60.4883 13.4629 58.5352C11.5117 56.583 11.5117 53.417 13.4629 51.4648L51.4648 13.4648C53.418 11.5117 56.584 11.5117 58.5371 13.4648C60.4883 15.417 60.4883 18.583 58.5371 20.5352L20.5352 58.5352Z" stroke="black" stroke-width="2" stroke-miterlimit="10" stroke-linecap="round" stroke-linejoin="round"/>
</svg>
