<svg width="72" height="72" viewBox="0 0 72 72" fill="none" xmlns="http://www.w3.org/2000/svg">
<path d="M48.6367 13.4648C46.6855 11.5117 43.5195 11.5117 41.5664 13.4648L13.4648 41.5645C11.5117 43.5176 11.5117 46.6836 13.4629 48.6357L23.3633 58.5352C25.3164 60.4883 28.4824 60.4883 30.4336 58.5352L58.5371 30.4355C60.4883 28.4824 60.4883 25.3164 58.5371 23.3643L48.6367 13.4648Z" fill="#F4AA41"/>
<path d="M50.0508 14.8789L48.6367 13.4648C46.6855 11.5117 43.5195 11.5117 41.5664 13.4648L13.4648 41.5645C11.5117 43.5176 11.5117 46.6836 13.4629 48.6357L14.8789 50.0508" stroke="black" stroke-width="2" stroke-miterlimit="10" stroke-linecap="round" stroke-linejoin="round"/>
<path d="M21.9492 57.1211L23.3633 58.5352C25.3164 60.4883 28.4824 60.4883 30.4336 58.5352L58.5371 30.4355C60.4883 28.4824 60.4883 25.3164 58.5371 23.3643L57.123 21.9492" stroke="black" stroke-width="2" stroke-miterlimit="10" stroke-linecap="round" stroke-linejoin="round"/>
</svg>
