<svg width="72" height="72" viewBox="0 0 72 72" fill="none" xmlns="http://www.w3.org/2000/svg">
<path d="M15.3906 65L16.1563 65.543C16.6689 65.9502 17.3086 66.2031 18.0137 66.2031C19.1621 66.2031 20.1484 65.5508 20.6523 64.6025C21.5039 66.1455 22.75 63.9375 25.9688 62.75C26.2529 63.2852 27.3164 64.3047 30.167 65.5322L30.623 64.6514C30.626 64.6533 31.0107 64.8271 31.2148 64.8828C31.2461 64.8916 31.2764 64.9033 31.3076 64.9111C31.5313 64.9648 31.7617 65 32.002 65C32.1846 65 32.3613 64.9775 32.5352 64.9463C32.5889 64.9365 32.6406 64.9248 32.6934 64.9121C32.8174 64.8828 32.9375 64.8447 33.0557 64.7998C33.1055 64.7813 33.1572 64.7656 33.207 64.7441C33.3398 64.6855 33.4658 64.6152 33.5879 64.5371C33.6729 64.4844 33.751 64.4248 33.8301 64.3643C33.8672 64.334 33.9043 64.3037 33.9404 64.2725C34.2266 64.0283 34.4629 63.7344 34.6406 63.3994C34.6406 63.3994 34.6406 63.4004 34.6416 63.4004C34.9414 63.9434 35.334 64.4199 35.8066 64.8164C35.8604 64.8623 35.915 64.9082 35.9707 64.9521C36.1035 65.0537 36.2373 65.1523 36.3799 65.2402C36.5391 65.3408 36.707 65.4287 36.8779 65.5107C36.998 65.5674 37.1182 65.6182 37.2432 65.665C37.4414 65.7412 37.6445 65.8047 37.8545 65.8555C37.9414 65.876 38.0283 65.8945 38.1172 65.9111C38.4043 65.9629 38.6973 66 39 66C39 66 39.001 66 39.002 66C39.3067 66 39.6016 65.9629 39.8906 65.9102C39.9766 65.8945 40.0605 65.876 40.1455 65.8564C40.3604 65.8047 40.5693 65.7402 40.7725 65.6611C40.8779 65.6211 40.9814 65.5811 41.083 65.5342C41.2715 65.4453 41.4551 65.3477 41.6309 65.2363C41.7686 65.1514 41.8965 65.0566 42.0254 64.959C42.0879 64.9092 42.1484 64.8584 42.21 64.8066C42.6738 64.415 43.0605 63.9453 43.3574 63.4102C43.3594 63.4072 43.3613 63.4033 43.3643 63.4004C43.543 63.7363 43.7813 64.0322 44.0693 64.2764C44.1025 64.3057 44.1357 64.333 44.1709 64.3604C44.252 64.4238 44.332 64.4844 44.4189 64.5391C44.5391 64.6152 44.665 64.6846 44.7969 64.7441C44.8477 64.7656 44.9004 64.7813 44.9531 64.8008C45.0684 64.8447 45.1875 64.8818 45.3096 64.9121C45.3633 64.9248 45.416 64.9365 45.4707 64.9463C45.6426 64.9775 45.8184 65 46 65C46 65 46.001 65 46.002 65C46.1856 65 46.3633 64.9775 46.5371 64.9463C46.5889 64.9365 46.6387 64.9248 46.6904 64.9131C46.8184 64.8828 46.9424 64.8438 47.0635 64.7969C47.1104 64.7793 47.1582 64.7656 47.2031 64.7461C47.3389 64.6855 47.4688 64.6133 47.5928 64.5342C47.6729 64.4844 47.7461 64.4287 47.8203 64.3711C47.8643 64.3369 47.9082 64.3008 47.9512 64.2637C48.2275 64.0254 48.457 63.7393 48.6318 63.415C48.6348 63.4102 48.6387 63.4053 48.6406 63.4004C48.9414 63.9443 49.335 64.4219 49.8086 64.8174C49.8623 64.8633 49.915 64.9082 49.9707 64.9521C50.1035 65.0537 50.2363 65.1514 50.3789 65.2402C50.543 65.3428 50.7148 65.4336 50.8906 65.5176C51.0049 65.5713 51.1201 65.6191 51.2393 65.6641C51.4385 65.7412 51.6445 65.8047 51.8555 65.8555C51.9424 65.876 52.0283 65.8945 52.1162 65.9111C52.4033 65.9629 52.6963 66 53 66C53 66 53.001 66 53.002 66C53.3087 66 53.6074 65.9629 53.8984 65.9102C53.9609 65.8984 54.0225 65.8887 54.084 65.875C54.3447 65.8164 54.5977 65.7383 54.8408 65.6406C54.9307 65.6045 55.0166 65.5635 55.1045 65.5225C55.2715 65.4434 55.4326 65.3555 55.5889 65.2598C55.748 65.1631 55.8975 65.0557 56.0449 64.9424C56.1357 64.8711 56.2246 64.7998 56.3105 64.7227C56.541 64.5186 56.748 64.2939 56.9375 64.0508C56.958 64.0244 56.9824 64 57.0029 63.9727C57.2422 64.1543 57.4922 64.3076 57.7539 64.4404C57.7646 64.4463 57.7764 64.4521 57.7871 64.458C58.0361 64.582 58.29 64.6826 58.5518 64.7617C58.585 64.7715 58.6182 64.7813 58.6514 64.791C58.8945 64.8594 59.1377 64.9102 59.3867 64.9414C59.4502 64.9492 59.5127 64.9541 59.5762 64.96C59.8008 64.9785 60.0225 64.9883 60.2471 64.9775C60.3438 64.9727 60.4404 64.959 60.5371 64.9492C60.7314 64.9287 60.9238 64.9063 61.1152 64.8633C61.2471 64.834 61.375 64.7881 61.5059 64.7471C61.6621 64.6982 61.8193 64.6543 61.9717 64.5889C62.1406 64.5176 62.2988 64.4229 62.4609 64.332C62.5703 64.2695 62.6846 64.2197 62.79 64.1484C63.0537 63.9717 63.3066 63.7695 63.54 63.5361C65.4922 61.583 65.4912 58.417 63.5391 56.4648C63.292 56.2178 63.0254 56.0039 62.7451 55.8193C62.9492 55.6699 63.1533 55.5195 63.3379 55.335C65.0459 53.626 65.2588 50.9883 63.9775 49.0479C63.7939 48.7705 63.5811 48.5078 63.3369 48.2637C63.1221 48.0488 62.8887 47.8672 62.6475 47.7002C62.5742 47.6494 62.499 47.6016 62.4238 47.5547C62.2383 47.4414 62.0479 47.3418 61.8525 47.2549C61.7402 47.2041 61.6279 47.1563 61.5117 47.1143C61.3242 47.0469 61.1348 46.9893 60.9414 46.9453C60.7813 46.9072 60.6211 46.8828 60.458 46.8613C60.3818 46.8525 60.3066 46.8457 60.2305 46.8398C59.623 46.7881 59.0146 46.8457 58.4248 47.0146C58.4219 47.0156 58.418 47.0166 58.4141 47.0176C58.5693 46.5088 58.5908 45.9717 58.4707 45.4561C58.4658 45.4365 58.458 45.418 58.4531 45.3975C58.3984 45.1846 58.3184 44.9795 58.2168 44.7803C58.1904 44.7285 58.165 44.6777 58.1357 44.627C58.0088 44.4121 57.8643 44.2051 57.6797 44.0205C57.6797 44.0205 57.6797 44.0205 57.6787 44.0195C57.6777 44.0186 57.6768 44.0186 57.6758 44.0176C57.4932 43.835 57.2881 43.6914 57.0752 43.5654C57.0225 43.5352 56.9697 43.5088 56.916 43.4814C56.7197 43.3818 56.5176 43.3027 56.3076 43.249C56.2852 43.2432 56.2637 43.2344 56.2412 43.2295C55.7275 43.1094 55.1934 43.1318 54.6865 43.2852C54.6855 43.2861 54.6836 43.2861 54.6826 43.2861C54.8555 42.6895 54.9141 42.0742 54.8604 41.46C54.8545 41.3887 54.8486 41.3184 54.8398 41.248C54.8184 41.082 54.793 40.9199 54.7549 40.7568C54.7119 40.5654 54.6543 40.3779 54.5879 40.1914C54.5459 40.0762 54.499 39.9639 54.4482 39.8516C54.3604 39.6543 54.2598 39.4619 54.1445 39.2754C54.0986 39.2002 54.0527 39.1279 54.002 39.0547C53.8359 38.8145 53.6543 38.5811 53.4395 38.3662C53.4385 38.3662 53.4385 38.3652 53.4375 38.3643C53.4365 38.3633 53.4365 38.3633 53.4365 38.3633C53.2217 38.1484 52.9873 37.9658 52.7461 37.7998C52.6777 37.752 52.6084 37.707 52.5381 37.6631C52.3398 37.541 52.1367 37.4326 51.9277 37.3418C51.791 37.2813 51.6533 37.2334 51.5127 37.1855C51.373 37.1387 51.2334 37.0938 51.0908 37.0605C50.9199 37.0186 50.749 36.9873 50.5742 36.9639C50.5479 36.9609 50.5205 36.959 50.4941 36.9561C49.8301 36.877 49.1611 36.9326 48.5156 37.1191C48.75 36.3496 48.6699 35.5117 48.2725 34.7949C48.2539 34.7617 48.2393 34.7285 48.2197 34.6963C48.0977 34.4932 47.957 34.2979 47.7813 34.1221C47.7813 34.1221 47.7813 34.1221 47.7803 34.1211C47.7061 34.0469 48.0635 33.1006 47.9805 33.042C47.1885 32.3975 46.1836 32.3408 45.2207 32.5029C34.1074 34.3721 35.8984 24.9023 36.209 23.875C36.4941 22.9316 35.9434 20.2993 35.333 19.146L34.6045 18.9561C34.5723 18.8945 34.4395 19.6484 34.4053 19.5879C34.3359 19.4707 34.2695 19.3535 34.1895 19.2402C34.0273 19.0039 33.8496 18.7754 33.6387 18.5645C33.4219 18.3477 33.1855 18.165 32.9424 17.9971C32.874 17.9492 32.8047 17.9053 32.7344 17.8613C32.541 17.7422 32.3428 17.6377 32.1377 17.5479C32.0459 17.5068 31.9551 17.4658 31.8613 17.4307C31.6572 17.3545 31.4492 17.293 31.2373 17.2451C31.082 17.209 30.9268 17.1855 30.7695 17.1641C30.6865 17.1543 30.6035 17.1475 30.5205 17.1406C29.917 17.0898 29.3125 17.1494 28.7266 17.3174C28.7236 17.3184 28.7197 17.3184 28.7168 17.3193C28.8721 16.8115 28.8945 16.2754 28.7734 15.7598C28.7686 15.7383 28.7598 15.7178 28.7539 15.6953C28.7002 15.4863 28.6221 15.2842 28.5215 15.0879C28.4941 15.0332 28.4678 14.9795 28.4365 14.9258C28.3125 14.7168 28.1709 14.5156 27.9912 14.335C27.9883 14.3311 27.9863 14.3262 27.9824 14.3223C27.9775 14.3174 27.9717 14.3154 27.9678 14.3105C27.7881 14.1338 27.5889 13.9922 27.3809 13.8701C27.3262 13.8369 27.2695 13.8096 27.2129 13.7813C27.0215 13.6846 26.8242 13.6074 26.6211 13.5547C26.5928 13.5479 26.5674 13.5371 26.5391 13.5303C26.0293 13.4121 25.499 13.4346 24.9961 13.5859C24.9922 13.5869 24.9883 13.5869 24.9844 13.5879C25.4746 11.8955 25.0742 10 23.7402 8.666C21.7871 6.7129 18.6211 6.7129 16.6699 8.666C16.4844 8.8506 16.335 9.0537 16.1846 9.2588C16 8.9775 15.7861 8.7119 15.5391 8.4648C14.5625 7.4883 13.2832 7 12.0029 7C10.7236 7 9.44434 7.4883 8.46884 8.4648C8.23444 8.6992 8.03224 8.9521 7.85554 9.2158C7.78814 9.3164 7.74024 9.4248 7.68074 9.5283C7.58594 9.6953 7.48834 9.8613 7.41314 10.0371C7.35164 10.1816 7.31054 10.3301 7.26374 10.4795C7.21974 10.6182 7.17094 10.7549 7.13964 10.8955C7.09864 11.0781 7.07714 11.2617 7.05664 11.4473C7.04594 11.5537 7.03034 11.6592 7.02644 11.7666C7.01564 11.9814 7.02544 12.1953 7.04304 12.4102C7.04984 12.4834 7.05474 12.5557 7.06354 12.6279C7.09384 12.8682 7.14364 13.1035 7.20904 13.3389C7.22074 13.3809 7.23344 13.4219 7.24614 13.4639C7.32324 13.7178 7.42094 13.9639 7.54004 14.2051C7.54984 14.2246 7.56054 14.2441 7.57134 14.2637C7.70024 14.5176 7.84964 14.7607 8.02544 14.9932C8.02644 14.9951 8.02734 14.998 8.02934 15C7.75294 15.2061 7.50204 15.4404 7.27344 15.6973C7.20214 15.7773 7.13574 15.8613 7.06934 15.9463C6.94924 16.0996 6.83794 16.2568 6.73634 16.4248C6.64364 16.5762 6.55864 16.7314 6.48244 16.8926C6.43954 16.9834 6.39754 17.0713 6.36044 17.1641C6.26374 17.4063 6.18554 17.6572 6.12704 17.916C6.11334 17.9785 6.10354 18.043 6.09184 18.1064C6.03914 18.3965 6.00204 18.6934 6.00204 19C6.00204 19.3037 6.03914 19.5977 6.09084 19.8857C6.10744 19.9746 6.12604 20.0605 6.14654 20.1465C6.19734 20.3564 6.26074 20.5605 6.33694 20.7598C6.38384 20.8838 6.43554 21.0049 6.49124 21.125C6.57324 21.2949 6.66114 21.4619 6.76074 21.6211C6.85064 21.7656 6.94924 21.9004 7.05274 22.0342C7.09474 22.0879 7.13774 22.1396 7.18164 22.1914C7.57914 22.666 8.05764 23.0605 8.60254 23.3613C8.26564 23.541 7.96884 23.7793 7.72364 24.0684C7.69634 24.1006 7.66994 24.1328 7.64454 24.166C7.58014 24.2471 7.51764 24.3291 7.46294 24.418C7.38674 24.5381 7.31744 24.6631 7.25884 24.7939C7.23634 24.8447 7.22074 24.8994 7.20024 24.9521C7.15634 25.0674 7.11914 25.1855 7.08984 25.3076C7.07714 25.3604 7.06544 25.4141 7.05574 25.4678C7.02344 25.6406 7.00204 25.8174 7.00204 26C7.00204 26.1826 7.02344 26.3594 7.05574 26.5322C7.06544 26.5859 7.07714 26.6396 7.08984 26.6924C7.11914 26.8145 7.15634 26.9326 7.20024 27.0479C7.22074 27.1006 7.23634 27.1553 7.25884 27.2061C7.31744 27.3369 7.38674 27.4619 7.46294 27.582C7.51764 27.6709 7.58014 27.7529 7.64454 27.834C7.66994 27.8672 7.69634 27.8994 7.72364 27.9316C7.96884 28.2207 8.26564 28.459 8.60254 28.6387C7.50884 29.2422 6.87114 29.7148 6.46884 30.9121C6.44734 30.9746 5.53424 30.4834 5.51564 30.5469C5.38774 30.9844 5.31934 31.4473 5.31934 31.9277C5.31934 33.8154 6.95704 37.1484 8.50004 38C7.82034 38.3613 9.00684 38.791 8.73444 40.2188C8.62704 40.7832 6.90634 42.6719 6.90634 42.6719C6.90634 42.6719 8.37704 42.7695 8.26864 42.8408C7.64754 43.248 7.12304 43.7861 6.73634 44.4248C6.63874 44.582 6.55084 44.7451 6.47174 44.9121C6.42384 45.0166 6.38094 45.1211 6.34084 45.2285C6.25104 45.459 6.17384 45.6953 6.11914 45.9414C6.10844 45.9912 6.10254 46.042 6.09384 46.0928C6.03814 46.3867 6.00204 46.6885 6.00204 47C6.00204 47.3047 6.03914 47.5986 6.09184 47.8867C6.10744 47.9746 6.12604 48.0596 6.14654 48.1455C6.19734 48.3574 6.26074 48.5625 6.33794 48.7627C6.38284 48.8818 6.43164 48.998 6.48544 49.1133C6.56934 49.2891 6.65924 49.46 6.76174 49.623C6.85064 49.7656 6.94924 49.8994 7.05184 50.0332C7.09384 50.0879 7.13874 50.1406 7.18364 50.1934C7.58014 50.667 8.05864 51.0605 8.60254 51.3613C8.26564 51.541 7.96884 51.7793 7.72364 52.0684C7.69634 52.1006 7.66994 52.1328 7.64454 52.166C7.58014 52.2471 7.51764 52.3291 7.46294 52.418C7.38674 52.5381 7.31744 52.6631 7.25884 52.7939C7.23634 52.8447 7.22074 52.8994 7.20024 52.9521C7.15634 53.0674 7.11914 53.1855 7.08984 53.3076C7.07714 53.3604 7.06544 53.4141 7.05574 53.4678C7.02344 53.6406 7.00204 53.8174 7.00204 54C7.00204 54.1826 7.02344 54.3594 7.05574 54.5322C7.06544 54.5859 7.07714 54.6396 7.08984 54.6924C7.11914 54.8145 7.15634 54.9326 7.20024 55.0479C7.22074 55.1006 7.23634 55.1553 7.25884 55.2061C7.31744 55.3369 7.38674 55.4619 7.46294 55.582C7.51764 55.6709 7.58014 55.7529 7.64454 55.834C7.66994 55.8672 7.69634 55.8994 7.72364 55.9316C7.96884 56.2207 8.26564 56.459 8.60354 56.6387C8.05864 56.9385 7.58204 57.332 7.18554 57.8057C7.13964 57.8594 7.09384 57.9131 7.05084 57.9688C6.94924 58.1016 6.85064 58.2344 6.76274 58.377C6.66024 58.5391 6.57034 58.709 6.48734 58.8838C6.43264 59 6.38384 59.1172 6.33794 59.2383C6.26074 59.4375 6.19734 59.6426 6.14654 59.8545C6.12604 59.9404 6.10744 60.0254 6.09184 60.1133C6.03914 60.4023 6.00204 60.6953 6.00204 61C6.00204 61.3457 6.03714 61.6826 6.10354 62.0078C6.57034 64.2861 8.58594 66 11.002 66C11.3066 66 11.6006 65.9629 11.8887 65.9102C11.9766 65.8945 12.0615 65.876 12.1465 65.8555C12.3604 65.8047 12.5674 65.7402 12.7686 65.6631C12.8799 65.6201 12.9893 65.5762 13.0967 65.5264C13.2803 65.4395 13.458 65.3457 13.6279 65.2383C13.7676 65.1514 13.8984 65.0557 14.0283 64.9561C14.0879 64.9092 14.1455 64.8604 14.2031 64.8105C14.6719 64.417 15.3906 65 15.3906 65Z" fill="#B1CC33"/>
<path d="M21.5479 65.2718C20.6064 65.6468 19.54 65.1898 19.165 64.2483L18.6836 63.2142L17.7813 63.6253L8.28133 39.8441L9.25003 39.5569L7.93653 36.1468C7.56053 35.2034 8.01763 34.137 8.95903 33.7601L8.79393 32.7503L32.4795 23.3133L32.8975 24.2332L37.0635 22.533C38.0059 22.1585 39.0703 22.616 39.4482 23.5584L44.2139 35.5491L45.166 35.3235L50.7949 49.4144C51.1709 50.3558 50.5908 53.6683 49.6504 54.0452L27.6875 64.1409L27.3164 63.2142L21.5479 65.2718Z" fill="#FCEA2B"/>
<path d="M59.6826 55.6826L58.3174 54.3174L17.6836 13.6836L16.3164 12.3164C15.918 12.1201 15.4746 12 15 12C13.3438 12 12 13.3438 12 15V58C12 59.1045 12.8965 60 14 60H57C58.6563 60 60 58.6563 60 57C60 56.5254 59.8799 56.082 59.6826 55.6826Z" fill="#F4AA41"/>
<path d="M59.6826 55.6826L58.3174 54.3174L17.6836 13.6836L16.3164 12.3164C15.918 12.1201 15.4746 12 15 12C13.3438 12 12 13.3438 12 15V58C12 59.1045 12.8965 60 14 60H57C58.6563 60 60 58.6563 60 57C60 56.5254 59.8799 56.082 59.6826 55.6826Z" stroke="black" stroke-width="2" stroke-miterlimit="10" stroke-linecap="round" stroke-linejoin="round"/>
<path d="M23 53L33 43" stroke="black" stroke-width="2" stroke-miterlimit="10" stroke-linecap="round" stroke-linejoin="round"/>
<path d="M18 48L28 38" stroke="black" stroke-width="2" stroke-miterlimit="10" stroke-linecap="round" stroke-linejoin="round"/>
<path d="M17 39L24 32" stroke="black" stroke-width="2" stroke-miterlimit="10" stroke-linecap="round" stroke-linejoin="round"/>
<path d="M32 55L39 48" stroke="black" stroke-width="2" stroke-miterlimit="10" stroke-linecap="round" stroke-linejoin="round"/>
<path d="M34.5137 19.7676C34.2871 19.3359 33.998 18.9287 33.6348 18.5645C32.3008 17.2305 30.4063 16.8301 28.7129 17.3193C29.0273 16.293 28.791 15.1348 27.9785 14.3223C27.166 13.5098 26.0078 13.2744 24.9824 13.5879C25.4707 11.8955 25.0703 10 23.7363 8.66603C21.7832 6.71293 18.6191 6.71293 16.666 8.66603C16.4824 8.85063 16.3301 9.05472 16.1816 9.25982C15.9961 8.97852 15.7813 8.71192 15.5352 8.46482C13.582 6.51172 10.416 6.51172 8.4648 8.46482C6.6777 10.252 6.5449 13.041 8.0273 15C6.8027 15.9111 6 17.3564 6 19C6 20.8867 7.0566 22.5098 8.5996 23.3613C7.6523 23.8652 7 24.8516 7 26C7 27.1484 7.6523 28.1348 8.5996 28.6387C7.6699 29.1523 6.9219 29.9492 6.4688 30.9121" stroke="black" stroke-width="2" stroke-miterlimit="10" stroke-linecap="round" stroke-linejoin="round"/>
<path d="M48.5566 36.8574C48.7598 35.8994 48.5215 34.8662 47.7773 34.1211C47.6426 33.9863 47.4883 33.8916 47.3359 33.7891" stroke="black" stroke-width="2" stroke-miterlimit="10" stroke-linecap="round" stroke-linejoin="round"/>
<path d="M7.7559 43.2363C6.6875 44.1484 6 45.4844 6 47C6 48.8877 7.0566 50.5098 8.5996 51.3613C7.6523 51.8652 7 52.8516 7 54C7 55.1484 7.6523 56.1348 8.5996 56.6387C7.0566 57.4902 6 59.1133 6 61C6 63.7617 8.2383 66 11 66C12.8867 66 14.5098 64.9424 15.3613 63.3994C15.5547 63.7656 15.8242 64.0859 16.1445 64.3438" stroke="black" stroke-width="2" stroke-miterlimit="10" stroke-linecap="round" stroke-linejoin="round"/>
<path d="M30.6191 64.6516C31.0313 64.8703 31.498 65.0002 32 65.0002C33.1484 65.0002 34.1348 64.3479 34.6387 63.3996C35.4883 64.9426 37.1133 66.0002 39 66.0002C40.8867 66.0002 42.5098 64.9426 43.3613 63.3996C43.8652 64.3479 44.8516 65.0002 46 65.0002C47.1484 65.0002 48.1348 64.3479 48.6387 63.3996C49.4902 64.9426 51.1113 66.0002 53 66.0002C54.6426 66.0002 56.0879 65.1965 57 63.9729C58.959 65.4543 61.75 65.3225 63.5371 63.5363C65.4883 61.5832 65.4883 58.4172 63.5352 56.465C63.2891 56.218 63.0215 56.0031 62.7402 55.8186C62.9453 55.6691 63.1504 55.5188 63.334 55.3342C65.2871 53.3811 65.2852 50.215 63.334 48.2639C61.998 46.9289 60.1035 46.5295 58.4102 47.0178C58.7246 45.9914 58.4883 44.8322 57.6758 44.0197C56.8652 43.2092 55.7051 42.9729 54.6797 43.2863C55.168 41.593 54.7695 39.6984 53.4336 38.3635C52.1348 37.0637 50.3047 36.6574 48.6484 37.0881" stroke="black" stroke-width="2" stroke-miterlimit="10" stroke-linecap="round" stroke-linejoin="round"/>
<path d="M44.2139 35.5484L39.4482 23.5577C39.1729 22.8683 38.5186 22.4415 37.8193 22.4268" stroke="black" stroke-width="2" stroke-miterlimit="10" stroke-linecap="round" stroke-linejoin="round"/>
<path d="M32.8975 24.2328L37.1182 22.5551C37.3486 22.4633 37.5869 22.4223 37.8193 22.4271C38.5186 22.4428 39.1729 22.8676 39.4482 23.558L44.2139 35.5487" stroke="black" stroke-width="2" stroke-miterlimit="10" stroke-linecap="round" stroke-linejoin="round"/>
<path d="M18.6836 63.2139L19.1992 64.5107C19.5645 65.4307 20.6064 65.8779 21.5273 65.5146L27.3164 63.2139" stroke="black" stroke-width="2" stroke-miterlimit="10" stroke-linecap="round" stroke-linejoin="round"/>
<path d="M9.25006 33.625L8.88096 33.7715C7.96096 34.1387 7.51176 35.1797 7.87706 36.1016L9.25006 39.5566" stroke="black" stroke-width="2" stroke-miterlimit="10" stroke-linecap="round" stroke-linejoin="round"/>
</svg>
