<svg width="72" height="72" viewBox="0 0 72 72" fill="none" xmlns="http://www.w3.org/2000/svg">
<path d="M59.6826 55.6826L58.3174 54.3174L17.6836 13.6836L16.3164 12.3164C15.918 12.1201 15.4746 12 15 12C13.3438 12 12 13.3438 12 15V58C12 59.1045 12.8965 60 14 60H57C58.6563 60 60 58.6563 60 57C60 56.5254 59.8799 56.082 59.6826 55.6826Z" fill="#F4AA41"/>
<path d="M59.6826 55.6826L58.3174 54.3174L17.6836 13.6836L16.3164 12.3164C15.918 12.1201 15.4746 12 15 12C13.3438 12 12 13.3438 12 15V58C12 59.1045 12.8965 60 14 60H57C58.6563 60 60 58.6563 60 57C60 56.5254 59.8799 56.082 59.6826 55.6826Z" stroke="black" stroke-width="2" stroke-miterlimit="10" stroke-linecap="round" stroke-linejoin="round"/>
<path d="M23 53L33 43" stroke="black" stroke-width="2" stroke-miterlimit="10" stroke-linecap="round" stroke-linejoin="round"/>
<path d="M18 48L28 38" stroke="black" stroke-width="2" stroke-miterlimit="10" stroke-linecap="round" stroke-linejoin="round"/>
<path d="M17 39L24 32" stroke="black" stroke-width="2" stroke-miterlimit="10" stroke-linecap="round" stroke-linejoin="round"/>
<path d="M32 55L39 48" stroke="black" stroke-width="2" stroke-miterlimit="10" stroke-linecap="round" stroke-linejoin="round"/>
</svg>
