<svg width="72" height="72" viewBox="0 0 72 72" fill="none" xmlns="http://www.w3.org/2000/svg">
<path d="M48.8417 17.2255C49.6979 16.5298 50.9553 16.6561 51.656 17.5082C59.6954 27.343 58.2399 41.8329 48.4051 49.8723C38.5703 57.9117 24.0804 56.4562 16.041 46.6214C15.3453 45.7652 15.4716 44.5078 16.3237 43.8071L48.8417 17.2255Z" fill="#A57939"/>
<path d="M43.4958 46.96C43.6485 47.096 43.8412 47.1789 44.0449 47.1963C44.2494 47.207 44.4511 47.1452 44.6144 47.0216" stroke="black" stroke-width="2" stroke-linecap="round" stroke-linejoin="round"/>
<path d="M32.3127 38.0186C32.4654 38.1546 32.6581 38.2375 32.8618 38.2549C33.0663 38.2657 33.268 38.2038 33.4313 38.0803" stroke="black" stroke-width="2" stroke-linecap="round" stroke-linejoin="round"/>
<path d="M30.6901 47.0947C30.8428 47.2307 31.0355 47.3136 31.2392 47.331C31.4438 47.3418 31.6457 47.28 31.8092 47.1564" stroke="black" stroke-width="2" stroke-linecap="round" stroke-linejoin="round"/>
<path d="M44.16 26.8599C44.3136 27.0423 44.5393 27.1482 44.7777 27.1499C45.042 27.1293 45.2889 27.0103 45.4696 26.8164" stroke="black" stroke-width="2" stroke-linecap="round" stroke-linejoin="round"/>
<path d="M40.2155 37.8346C40.3691 38.0169 40.5948 38.1229 40.8332 38.1246C41.0975 38.1041 41.3444 37.985 41.525 37.791" stroke="black" stroke-width="2" stroke-linecap="round" stroke-linejoin="round"/>
<path d="M49.9978 32.4214C50.1514 32.6038 50.3771 32.7097 50.6155 32.7114C50.8798 32.6909 51.1267 32.5719 51.3073 32.3779" stroke="black" stroke-width="2" stroke-linecap="round" stroke-linejoin="round"/>
<path d="M21.756 44.0654C21.9087 44.2014 22.1014 44.2843 22.3052 44.3016C22.5097 44.3124 22.7113 44.2506 22.8746 44.127" stroke="black" stroke-width="2" stroke-linecap="round" stroke-linejoin="round"/>
<path d="M48.8417 17.2265C49.6979 16.5308 50.9553 16.6571 51.656 17.5092C59.6954 27.344 58.2399 41.8339 48.4051 49.8733C38.5703 57.9127 24.0804 56.4572 16.041 46.6224C15.3453 45.7662 15.4716 44.5088 16.3237 43.8081L48.8417 17.2265Z" stroke="black" stroke-width="2" stroke-linecap="round" stroke-linejoin="round"/>
<path d="M48.8331 41.1246C49.0974 41.1041 49.3443 40.985 49.5249 40.791" stroke="black" stroke-width="2" stroke-linecap="round" stroke-linejoin="round"/>
</svg>
