<svg width="72" height="72" viewBox="0 0 72 72" fill="none" xmlns="http://www.w3.org/2000/svg">
<path d="M20.7122 33.692C24.0258 33.692 26.712 31.0058 26.712 27.6922C26.712 24.3786 24.0258 21.6924 20.7122 21.6924C17.3986 21.6924 14.7124 24.3786 14.7124 27.6922C14.7124 31.0058 17.3986 33.692 20.7122 33.692Z" fill="#EA5A47"/>
<path d="M37.5214 16.0178C38.8685 19.0183 37.5281 22.5427 34.5276 23.8898C31.5271 25.2369 28.0027 23.8964 26.6556 20.8959C25.3085 17.8954 26.6489 14.371 29.6494 13.0239C32.651 11.7165 36.1472 13.0463 37.5214 16.0178Z" fill="#EA5A47"/>
<path d="M49.074 17.0357C48.4046 15.5434 46.6522 14.8764 45.1599 15.5459C44.7866 15.7134 44.452 15.9564 44.1773 16.2596C42.8923 13.8292 39.8804 12.9007 37.4501 14.1857C35.9311 14.9888 34.9337 16.5186 34.8115 18.2325C33.9398 17.5893 32.7957 17.4475 31.7933 17.8583C30.9792 18.2823 30.3684 19.0142 30.0967 19.8909C28.2943 18.7455 25.9608 18.8833 24.3059 20.2331C22.5055 21.6629 21.9577 24.1611 22.9946 26.2131C21.9191 26.0503 20.8465 26.5244 20.243 27.4293C19.7092 28.1768 19.536 29.1232 19.7704 30.0113C17.6251 29.9165 15.6611 31.2093 14.9 33.2173C14.1282 35.362 14.8741 37.7584 16.7267 39.0862C15.2344 39.7556 14.5674 41.508 15.2369 43.0003C15.4044 43.3736 15.6474 43.7082 15.9506 43.9829" fill="#B1CC33"/>
<path d="M32.5234 29.514C31.1172 29.0426 30.9241 24.7174 32.0988 24.1456C33.036 23.6894 34.3036 25.8856 36.1181 25.5042C37.169 25.1464 37.997 24.3254 38.3636 23.2776C38.2988 23.2302 34.4768 30.1688 32.5234 29.514Z" fill="#6A462F"/>
<path d="M25 30.9993C24.8 30.3225 24.2824 28.5686 25 27.9993C25.8825 27.2993 27.4466 29.3324 30 28.9993C31.7579 28.7699 32.3962 27.6262 33 27.9993C33.8387 28.5175 33.6443 31.3649 32 32.9993C30.7073 34.3471 28.7116 34.7462 27 33.9993C25.9547 33.3112 25.2331 32.2288 25 30.9993Z" fill="#6A462F"/>
<path d="M25 31.0003C24.8 30.3235 24.2824 28.5696 25 28.0003C25.8825 27.3003 27.4466 29.3334 30 29.0003" stroke="black" stroke-width="2" stroke-linecap="round" stroke-linejoin="round"/>
<path d="M32.5234 29.5147C31.3991 25.5281 31.6334 24.3967 32.0989 24.1463C32.8944 23.7187 34.3526 25.8683 36.1181 25.5049C37.1626 25.1369 37.9868 24.3196 38.3636 23.2783" stroke="black" stroke-width="2" stroke-linecap="round" stroke-linejoin="round"/>
<path d="M44.2406 16.3377C42.9556 13.9073 39.9437 12.9788 37.5134 14.2638C35.9944 15.0669 34.9969 16.5968 34.8749 18.3107C34.0032 17.6674 32.8591 17.5256 31.8567 17.9364C31.0426 18.3605 30.4318 19.0923 30.1601 19.9691C28.3577 18.8236 26.0242 18.9614 24.3693 20.3112C22.5688 21.741 22.021 24.2392 23.058 26.2912C21.9826 26.1284 20.91 26.6024 20.3064 27.5072C19.7726 28.2547 19.5994 29.2011 19.8338 30.0892C17.6885 29.9946 15.7248 31.2875 14.9638 33.2955C14.1919 35.4401 14.9377 37.8364 16.7901 39.1643" stroke="black" stroke-width="2" stroke-linecap="round" stroke-linejoin="round"/>
<path d="M19.3515 22.8633C18.2601 23.1693 17.2971 23.8206 16.6067 24.7196C15.945 25.6417 15.6305 26.7681 15.7187 27.8996" stroke="black" stroke-width="2" stroke-linecap="round" stroke-linejoin="round"/>
<path d="M27.5583 16.1546C28.0752 15.1458 28.9051 14.3316 29.9235 13.8338C30.9588 13.3687 32.1251 13.2845 33.2164 13.596" stroke="black" stroke-width="2" stroke-linecap="round" stroke-linejoin="round"/>
</svg>
