<svg width="72" height="72" viewBox="0 0 72 72" fill="none" xmlns="http://www.w3.org/2000/svg">
<path d="M20.7122 33.692C24.0258 33.692 26.712 31.0058 26.712 27.6922C26.712 24.3786 24.0258 21.6924 20.7122 21.6924C17.3986 21.6924 14.7124 24.3786 14.7124 27.6922C14.7124 31.0058 17.3986 33.692 20.7122 33.692Z" fill="#EA5A47"/>
<path d="M37.5214 16.0178C38.8685 19.0183 37.5281 22.5427 34.5276 23.8898C31.5271 25.2369 28.0027 23.8964 26.6556 20.8959C25.3085 17.8954 26.6489 14.371 29.6494 13.0239C32.651 11.7165 36.1472 13.0463 37.5214 16.0178Z" fill="#EA5A47"/>
<path d="M49.074 17.0357C48.4046 15.5434 46.6522 14.8764 45.1599 15.5459C44.7866 15.7134 44.452 15.9564 44.1773 16.2596C42.8923 13.8292 39.8804 12.9007 37.4501 14.1857C35.9311 14.9888 34.9337 16.5186 34.8115 18.2325C33.9398 17.5893 32.7957 17.4475 31.7933 17.8583C30.9792 18.2823 30.3684 19.0142 30.0967 19.8909C28.2943 18.7455 25.9608 18.8833 24.3059 20.2331C22.5055 21.6629 21.9577 24.1611 22.9946 26.2131C21.9191 26.0503 20.8465 26.5244 20.243 27.4293C19.7092 28.1768 19.536 29.1232 19.7704 30.0113C17.6251 29.9165 15.6611 31.2093 14.9 33.2173C14.1282 35.362 14.8741 37.7584 16.7267 39.0862C15.2344 39.7556 14.5674 41.508 15.2369 43.0003C15.4044 43.3736 15.6474 43.7082 15.9506 43.9829" fill="#B1CC33"/>
<path d="M32.5234 29.514C31.1172 29.0426 30.9241 24.7174 32.0988 24.1456C33.036 23.6894 34.3036 25.8856 36.1181 25.5042C37.169 25.1464 37.997 24.3254 38.3636 23.2776C38.2988 23.2302 34.4768 30.1688 32.5234 29.514Z" fill="#6A462F"/>
<path d="M25 30.9993C24.8 30.3225 24.2824 28.5686 25 27.9993C25.8825 27.2993 27.4466 29.3324 30 28.9993C31.7579 28.7699 32.3962 27.6262 33 27.9993C33.8387 28.5175 33.6443 31.3649 32 32.9993C30.7073 34.3471 28.7116 34.7462 27 33.9993C25.9547 33.3112 25.2331 32.2288 25 30.9993Z" fill="#6A462F"/>
<path d="M48.8417 17.2255C49.6979 16.5298 50.9553 16.6561 51.656 17.5082C59.6954 27.343 58.2399 41.8329 48.4051 49.8723C38.5703 57.9117 24.0804 56.4562 16.041 46.6214C15.3453 45.7652 15.4716 44.5078 16.3237 43.8071L48.8417 17.2255Z" fill="#A57939"/>
<path d="M43.4958 46.96C43.6485 47.096 43.8412 47.1789 44.0449 47.1963C44.2494 47.207 44.4511 47.1452 44.6144 47.0216" stroke="black" stroke-width="2" stroke-linecap="round" stroke-linejoin="round"/>
<path d="M32.3127 38.0186C32.4654 38.1546 32.6581 38.2375 32.8618 38.2549C33.0663 38.2657 33.268 38.2038 33.4313 38.0803" stroke="black" stroke-width="2" stroke-linecap="round" stroke-linejoin="round"/>
<path d="M30.6901 47.0947C30.8428 47.2307 31.0355 47.3136 31.2392 47.331C31.4438 47.3418 31.6457 47.28 31.8092 47.1564" stroke="black" stroke-width="2" stroke-linecap="round" stroke-linejoin="round"/>
<path d="M44.16 26.8599C44.3136 27.0423 44.5393 27.1482 44.7777 27.1499C45.042 27.1293 45.2889 27.0103 45.4696 26.8164" stroke="black" stroke-width="2" stroke-linecap="round" stroke-linejoin="round"/>
<path d="M40.2155 37.8346C40.3691 38.0169 40.5948 38.1229 40.8332 38.1246C41.0975 38.1041 41.3444 37.985 41.525 37.791" stroke="black" stroke-width="2" stroke-linecap="round" stroke-linejoin="round"/>
<path d="M49.9978 32.4214C50.1514 32.6038 50.3771 32.7097 50.6155 32.7114C50.8798 32.6909 51.1267 32.5719 51.3073 32.3779" stroke="black" stroke-width="2" stroke-linecap="round" stroke-linejoin="round"/>
<path d="M21.756 44.0654C21.9087 44.2014 22.1014 44.2843 22.3052 44.3016C22.5097 44.3124 22.7113 44.2506 22.8746 44.127" stroke="black" stroke-width="2" stroke-linecap="round" stroke-linejoin="round"/>
<path d="M48.8417 17.2265C49.6979 16.5308 50.9553 16.6571 51.656 17.5092C59.6954 27.344 58.2399 41.8339 48.4051 49.8733C38.5703 57.9127 24.0804 56.4572 16.041 46.6224C15.3453 45.7662 15.4716 44.5088 16.3237 43.8081L48.8417 17.2265Z" stroke="black" stroke-width="2" stroke-linecap="round" stroke-linejoin="round"/>
<path d="M25 31.0003C24.8 30.3235 24.2824 28.5696 25 28.0003C25.8825 27.3003 27.4466 29.3334 30 29.0003" stroke="black" stroke-width="2" stroke-linecap="round" stroke-linejoin="round"/>
<path d="M32.5234 29.5147C31.3991 25.5281 31.6334 24.3967 32.0989 24.1463C32.8944 23.7187 34.3526 25.8683 36.1181 25.5049C37.1626 25.1369 37.9868 24.3196 38.3636 23.2783" stroke="black" stroke-width="2" stroke-linecap="round" stroke-linejoin="round"/>
<path d="M48.8331 41.1246C49.0974 41.1041 49.3443 40.985 49.5249 40.791" stroke="black" stroke-width="2" stroke-linecap="round" stroke-linejoin="round"/>
<path d="M44.2406 16.3377C42.9556 13.9073 39.9437 12.9788 37.5134 14.2638C35.9944 15.0669 34.9969 16.5968 34.8749 18.3107C34.0032 17.6674 32.8591 17.5256 31.8567 17.9364C31.0426 18.3605 30.4318 19.0923 30.1601 19.9691C28.3577 18.8236 26.0242 18.9614 24.3693 20.3112C22.5688 21.741 22.021 24.2392 23.058 26.2912C21.9826 26.1284 20.91 26.6024 20.3064 27.5072C19.7726 28.2547 19.5994 29.2011 19.8338 30.0892C17.6885 29.9946 15.7248 31.2875 14.9638 33.2955C14.1919 35.4401 14.9377 37.8364 16.7901 39.1643" stroke="black" stroke-width="2" stroke-linecap="round" stroke-linejoin="round"/>
<path d="M19.3515 22.8633C18.2601 23.1693 17.2971 23.8206 16.6067 24.7196C15.945 25.6417 15.6305 26.7681 15.7187 27.8996" stroke="black" stroke-width="2" stroke-linecap="round" stroke-linejoin="round"/>
<path d="M27.5583 16.1546C28.0752 15.1458 28.9051 14.3316 29.9235 13.8338C30.9588 13.3687 32.1251 13.2845 33.2164 13.596" stroke="black" stroke-width="2" stroke-linecap="round" stroke-linejoin="round"/>
</svg>
