<svg width="72" height="72" viewBox="0 0 72 72" fill="none" xmlns="http://www.w3.org/2000/svg">
<path d="M43 61C32.334 49.4023 32.334 30.5977 43 19H45C46.6563 19 48 20.3438 48 22V61C48 63.7617 45.7617 66 43 66H29C26.2383 66 24 63.7617 24 61V22C24 20.3438 25.3438 19 27 19H29C32.4346 22.7344 34.7637 27.2168 35.9863 31.9648" fill="#FCEA2B"/>
<path d="M35.9805 48.0537C34.7578 52.7949 32.4297 57.2695 29 61" stroke="black" stroke-width="2" stroke-miterlimit="10" stroke-linecap="round" stroke-linejoin="round"/>
<path d="M43 61C32.334 49.4023 32.334 30.5977 43 19H45C46.6563 19 48 20.3438 48 22V61C48 63.7617 45.7617 66 43 66H29C26.2383 66 24 63.7617 24 61V22C24 20.3438 25.3438 19 27 19H29C32.4346 22.7344 34.7637 27.2168 35.9863 31.9648" stroke="black" stroke-width="2" stroke-miterlimit="10" stroke-linecap="round" stroke-linejoin="round"/>
</svg>
