<svg width="72" height="72" viewBox="0 0 72 72" fill="none" xmlns="http://www.w3.org/2000/svg">
<path d="M23 23.5244V15.9063L23.8633 15.9043C24.3633 15.3994 25.041 15.0723 25.7959 15.0205C25.3066 14.4863 25 13.7813 25 13C25 11.3438 26.3438 10 28 10C28 8.3438 29.3438 7 31 7C31.8691 7 32.6465 7.376 33.1934 7.9668C33.6162 6.8213 34.708 6 36 6C37.292 6 38.3838 6.8213 38.8066 7.9668C39.3535 7.376 40.1309 7 41 7C42.6563 7 44 8.3438 44 10C45.6563 10 47 11.3438 47 13C47 13.7813 46.6934 14.4863 46.2041 15.0205C46.96 15.0723 47.6396 15.4004 48.1396 15.9063H49V23.9063L36 34.5244L23 23.5244Z" fill="#B1CC33"/>
<path d="M39 15C38.6768 15 38.3623 15.0366 38.0557 15.0952C37.1484 13.8311 35.6748 13 34 13C31.8418 13 30.002 14.3672 29.3027 16.2827C29.2891 16.3208 28.6592 15.2739 28.6455 15.3125C28.4756 15.8154 28.2314 16.6909 28.1875 17.25C27.9375 20.4063 31.2383 33.001 34 33.001C34.3232 33.001 34.6377 32.9648 34.9443 32.9063C35.8516 34.1709 37.3252 35.001 39 35.001C41.7617 35.001 43.4063 22.8237 43.4063 20.0625C43.4063 18.7197 43.7813 16.875 42.6719 15.2813C42.6602 15.2642 42.5801 16.5098 42.5654 16.4951C41.6592 15.5723 40.3965 15 39 15Z" fill="#EA5A47"/>
<path d="M43 61C32.334 49.4023 32.334 30.5977 43 19H45C46.6563 19 48 20.3438 48 22V61C48 63.7617 45.7617 66 43 66H29C26.2383 66 24 63.7617 24 61V22C24 20.3438 25.3438 19 27 19H29C32.4346 22.7344 34.7637 27.2168 35.9863 31.9648" fill="#FCEA2B"/>
<path d="M48.1396 15.9063C47.6396 15.4004 46.96 15.0723 46.2041 15.0205C46.6934 14.4863 47 13.7813 47 13C47 11.3438 45.6563 10 44 10C44 8.3438 42.6563 7 41 7C40.1309 7 39.3535 7.376 38.8066 7.9668C38.3838 6.8213 37.292 6 36 6C34.708 6 33.6162 6.8213 33.1934 7.9668C32.6465 7.376 31.8691 7 31 7C29.3438 7 28 8.3438 28 10C26.3438 10 25 11.3438 25 13C25 13.7813 25.3066 14.4863 25.7959 15.0205C25.041 15.0723 24.3633 15.3994 23.8633 15.9043" stroke="black" stroke-width="2" stroke-miterlimit="10" stroke-linecap="round" stroke-linejoin="round"/>
<path d="M35.9805 48.0537C34.7578 52.7949 32.4297 57.2695 29 61" stroke="black" stroke-width="2" stroke-miterlimit="10" stroke-linecap="round" stroke-linejoin="round"/>
<path d="M43 61C32.334 49.4023 32.334 30.5977 43 19H45C46.6563 19 48 20.3438 48 22V61C48 63.7617 45.7617 66 43 66H29C26.2383 66 24 63.7617 24 61V22C24 20.3438 25.3438 19 27 19H29C32.4346 22.7344 34.7637 27.2168 35.9863 31.9648" stroke="black" stroke-width="2" stroke-miterlimit="10" stroke-linecap="round" stroke-linejoin="round"/>
<path d="M41.9873 15.9941C41.1543 15.3706 40.1211 15 39 15C38.6768 15 38.3623 15.0366 38.0557 15.0952C37.1484 13.8311 35.6748 13 34 13C32.0869 13 30.4395 14.0811 29.6025 15.6611" stroke="black" stroke-width="2" stroke-miterlimit="10" stroke-linecap="round" stroke-linejoin="round"/>
</svg>
