<svg width="72" height="72" viewBox="0 0 72 72" fill="none" xmlns="http://www.w3.org/2000/svg">
<path d="M30.2597 29.1028C33.4597 28.2454 35.3588 24.956 34.5014 21.7559C33.6439 18.5557 30.3547 16.6565 27.1546 17.5139C23.9545 18.3713 22.0554 21.6607 22.9129 24.8608C23.7703 28.061 27.0596 29.9602 30.2597 29.1028Z" fill="#EA5A47"/>
<path d="M19.732 34.3989C22.075 32.0559 22.0749 28.2571 19.7318 25.914C17.3887 23.5709 13.5899 23.5709 11.2469 25.9139C8.9039 28.2569 8.90396 32.0557 11.247 34.3988C13.5901 36.7419 17.389 36.7419 19.732 34.3989Z" fill="#EA5A47"/>
<path d="M60.7542 34.4006C63.0965 32.059 63.0955 28.2603 60.752 25.9161C58.4084 23.5718 54.6097 23.5698 52.2674 25.9114C49.9251 28.2531 49.9261 32.0517 52.2697 34.396C54.6132 36.7402 58.4119 36.7423 60.7542 34.4006Z" fill="#EA5A47"/>
<path d="M49.0889 24.8595C48.2295 28.0606 44.9443 29.9547 41.7422 29.0982C38.541 28.2437 36.6436 24.9552 37.499 21.753C38.3516 18.5562 41.6465 16.6573 44.8438 17.5177C48.042 18.3702 49.9463 21.6602 49.0889 24.8595Z" fill="#EA5A47"/>
<path d="M57.4413 48.6279L62.3993 47.8779L62.0722 46.9121C63.6737 46.4824 64.6249 44.8379 64.1933 43.2383C63.9472 42.3193 63.2948 41.627 62.4843 41.2744C63.8495 39.709 64.1601 37.4014 63.0644 35.502C61.8827 33.459 59.4823 32.5781 57.3163 33.2197C57.6015 32.209 57.3593 31.084 56.5624 30.29C55.8905 29.6162 54.9784 29.3428 54.1024 29.4434C54.5009 27.4043 53.6161 25.251 51.7177 24.1543C49.6728 22.9756 47.1532 23.4121 45.5985 25.0508C45.3407 24.0342 44.5673 23.1797 43.4813 22.8906C42.5624 22.6436 41.6356 22.8633 40.9267 23.3877C40.2528 21.4229 38.4091 20.001 36.2157 20.001C33.8573 20.001 31.8935 21.6396 31.3661 23.8359C30.6337 23.0859 29.536 22.7324 28.4511 23.0234C27.5321 23.2695 26.8397 23.9219 26.4872 24.7314C24.9218 23.3672 22.6142 23.0576 20.7157 24.1543C18.6728 25.334 17.7909 27.7344 18.4335 29.9004C17.4228 29.6172 16.2968 29.8594 15.5019 30.6543C14.829 31.3262 14.5556 32.2383 14.6562 33.1152C12.6181 32.7168 10.4647 33.6016 9.3681 35.501C8.1894 37.5439 8.6259 40.0645 10.2645 41.6191C9.2479 41.8779 8.3944 42.6504 8.1024 43.7363C7.6737 45.3369 8.6239 46.9814 10.2235 47.4111L10.1952 48.416L13.3144 49.0674" fill="#B1CC33"/>
<path d="M62.0723 46.9121C63.6738 46.4824 64.625 44.8379 64.1934 43.2383C63.9473 42.3193 63.2949 41.627 62.4844 41.2744C63.8496 39.709 64.1602 37.4014 63.0645 35.502C61.8828 33.459 59.4824 32.5781 57.3164 33.2197C57.6016 32.209 57.3594 31.084 56.5625 30.29C55.8906 29.6162 54.9785 29.3428 54.1016 29.4434C54.5 27.4043 53.6152 25.251 51.7168 24.1543C49.6719 22.9756 47.1523 23.4121 45.5986 25.0508C45.3408 24.0342 44.5674 23.1797 43.4814 22.8906C42.5625 22.6436 41.6357 22.8633 40.9268 23.3877C40.2529 21.4229 38.4092 20.001 36.2158 20.001C33.8574 20.001 31.8926 21.6396 31.3662 23.8359C30.6328 23.0859 29.5371 22.7324 28.4512 23.0234C27.5322 23.2695 26.8398 23.9219 26.4883 24.7314C24.9219 23.3672 22.6152 23.0576 20.7158 24.1543C18.6719 25.334 17.791 27.7344 18.4336 29.9004C17.4238 29.6172 16.2969 29.8594 15.502 30.6543C14.8291 31.3262 14.5566 32.2383 14.6563 33.1152C12.6172 32.7168 10.4648 33.6016 9.36822 35.501C8.18952 37.5439 8.62602 40.0645 10.2656 41.6191C9.24802 41.8779 8.39452 42.6504 8.10252 43.7363C7.67382 45.3369 8.62402 46.9814 10.2236 47.4111" stroke="black" stroke-width="2" stroke-miterlimit="10" stroke-linecap="round" stroke-linejoin="round"/>
<path d="M14.9971 25.1943C13.8867 25.2969 12.8066 25.7681 11.9551 26.6196C11.1445 27.4302 10.6797 28.4468 10.5488 29.5" stroke="black" stroke-width="2" stroke-miterlimit="10" stroke-linecap="round" stroke-linejoin="round"/>
<path d="M30.6944 18.7381C29.6974 18.2967 28.5509 18.1771 27.4132 18.4813C26.2794 18.785 25.3487 19.4583 24.7062 20.3353" stroke="black" stroke-width="2" stroke-miterlimit="10" stroke-linecap="round" stroke-linejoin="round"/>
<path d="M41.3047 18.7381C42.3018 18.2967 43.4482 18.1771 44.5859 18.4813C45.7197 18.785 46.6504 19.4583 47.293 20.3353" stroke="black" stroke-width="2" stroke-miterlimit="10" stroke-linecap="round" stroke-linejoin="round"/>
<path d="M57.0021 25.1943C58.1114 25.2969 59.1915 25.7681 60.0431 26.6196C60.8536 27.4302 61.3185 28.4468 61.4493 29.5" stroke="black" stroke-width="2" stroke-miterlimit="10" stroke-linecap="round" stroke-linejoin="round"/>
</svg>
